Coordinates
version=1
nRows=13
nColumns=40
inDegrees=yes

Units are S.I. units (second, meters, Newtons, ...)
Angles are in degrees.

endheader
time	pelvis_tilt	pelvis_list	pelvis_rotation	pelvis_tx	pelvis_ty	pelvis_tz	hip_flexion_r	hip_adduction_r	hip_rotation_r	knee_angle_r	knee_angle_r_beta	ankle_angle_r	subtalar_angle_r	mtp_angle_r	hip_flexion_l	hip_adduction_l	hip_rotation_l	knee_angle_l	knee_angle_l_beta	ankle_angle_l	subtalar_angle_l	mtp_angle_l	lumbar_extension	lumbar_bending	lumbar_rotation	arm_flex_r	arm_add_r	arm_rot_r	elbow_flex_r	pro_sup_r	wrist_flex_r	wrist_dev_r	arm_flex_l	arm_add_l	arm_rot_l	elbow_flex_l	pro_sup_l	wrist_flex_l	wrist_dev_l
      5.25000000	      6.65198383	     20.16883082	     84.25346969	      0.60943151	      1.00586771	     -1.09704793	    -29.83684319	      4.94075168	      3.38414875	      3.98290519	      0.06951481	     15.18884536	      0.00000000	      0.00000000	      2.41195405	    -10.50115902	    -15.53921034	     12.66815640	      0.22110104	      8.12878099	      0.00000000	      0.00000000	    -37.51365411	      3.12838020	     10.19564397	     10.11598876	    -17.11097832	      6.07752001	    143.78468140	     87.75681465	      0.00000000	      0.00000000	      2.95278850	     -4.19748395	      1.95110257	    138.78628799	     84.32277668	      0.00000000	      0.00000000
      5.26000000	      6.70779005	     19.74269413	     84.49244042	      0.60775978	      1.00326062	     -1.09560185	    -29.84380649	      4.98607094	      2.92602069	      4.43265607	      0.07736444	     15.90783049	      0.00000000	      0.00000000	      2.43244548	    -10.09648617	    -13.80337612	      8.69707723	      0.15179263	      7.34149856	      0.00000000	      0.00000000	    -37.32307866	      3.32282021	     10.10940784	     10.17036419	    -17.04099696	      6.03465257	    143.75373370	     87.76215495	      0.00000000	      0.00000000	      2.96611941	     -3.94412155	      2.00523738	    138.60888738	     84.33677818	      0.00000000	      0.00000000
      5.27000000	      7.09278434	     19.28809540	     84.64750283	      0.60612387	      1.00029699	     -1.09442022	    -29.84746795	      5.37754969	      2.90374492	      4.95730966	      0.08652138	     16.39981312	      0.00000000	      0.00000000	      2.60826983	    -10.16961012	    -12.05350334	      5.35303299	      0.09342805	      7.24450727	      0.00000000	      0.00000000	    -37.06984067	      3.82188830	     10.14958851	     10.22676009	    -17.00597298	      6.03729382	    143.73640541	     87.75197737	      0.00000000	      0.00000000	      2.92765427	     -3.67815168	      1.99919646	    138.47379471	     84.32317285	      0.00000000	      0.00000000
      5.28000000	      7.23219158	     19.06234415	     84.66626428	      0.60445297	      0.99763018	     -1.09370634	    -29.85137453	      5.37751642	      2.39948956	      5.96068875	      0.10403364	     17.18470425	      0.00000000	      0.00000000	      2.49667474	    -10.01197419	    -10.88800973	      2.45388185	      0.04282832	      6.78376605	      0.00000000	      0.00000000	    -36.97996710	      3.97740501	     10.19608061	     10.24696592	    -16.95578413	      5.92286895	    143.74117411	     87.73396271	      0.00000000	      0.00000000	      2.88715898	     -3.39504870	      2.00851786	    138.39571957	     84.20284012	      0.00000000	      0.00000000
      5.29000000	      7.45622113	     18.81667780	     84.92725889	      0.60260979	      0.99502549	     -1.09243303	    -29.85250828	      5.60728119	      2.08388845	      6.85851441	      0.11970366	     17.83251483	      0.00000000	      0.00000000	      2.99272529	    -10.11020702	     -9.63290533	      1.12228008	      0.01958748	      6.55652589	      0.00000000	      0.00000000	    -36.93865519	      4.31677821	     10.04893272	     10.38075934	    -16.81683646	      5.83679770	    143.69387948	     87.67181452	      0.00000000	      0.00000000	      2.96174605	     -3.16157642	      1.99111389	    138.34001207	     83.54476103	      0.00000000	      0.00000000
      5.30000000	      7.49903765	     18.60742817	     85.19258579	      0.60038588	      0.99230498	     -1.09163343	    -29.85150176	      5.60096379	      1.63017678	      7.85536854	      0.13710204	     18.49378230	      0.00000000	      0.00000000	      3.67568918	    -10.01315119	     -8.79494625	      0.79532957	      0.01388112	      7.02882566	      0.00000000	      0.00000000	    -36.83990645	      4.50399887	      9.80588760	     10.48724651	    -16.65880260	      5.69620228	    143.66309566	     87.75466657	      0.00000000	      0.00000000	      2.99799326	     -2.96193130	      1.96898650	    138.32879782	     83.05280996	      0.00000000	      0.00000000
      5.31000000	      7.58275812	     18.48335350	     85.00916796	      0.59832096	      0.98968673	     -1.09152955	    -29.85297344	      5.36153076	      1.68172946	      9.12409411	      0.15924548	     19.22214028	      0.00000000	      0.00000000	      4.05027359	     -9.93043755	     -8.40172100	      0.86903636	      0.01516755	      7.74437081	      0.00000000	      0.00000000	    -36.73779621	      4.54282844	      9.89983356	     10.47696572	    -16.54940233	      5.57479181	    143.63080176	     87.72444485	      0.00000000	      0.00000000	      2.94323812	     -2.67270935	      1.85018281	    138.22817340	     83.41109215	      0.00000000	      0.00000000
      5.32000000	      7.59819532	     18.36352936	     84.73076458	      0.59637191	      0.98726774	     -1.09203073	    -29.85865840	      4.99553774	      1.83576905	     10.40033921	      0.18152016	     19.46296299	      0.00000000	      0.00000000	      4.34286311	     -9.78913137	     -8.09210860	      1.34274967	      0.02343540	      7.85327277	      0.00000000	      0.00000000	    -36.56116152	      4.46908530	     10.06009882	     10.26533807	    -16.36505055	      5.48614028	    143.58386661	     87.70895402	      0.00000000	      0.00000000	      2.79993406	     -2.41098550	      1.77710209	    138.12958280	     83.55748652	      0.00000000	      0.00000000
      5.33000000	      7.30281228	     18.62532741	     84.00886354	      0.59446790	      0.98558943	     -1.09257685	    -29.86115193	      3.96488226	      1.77388533	     12.41990443	      0.21676823	     20.29282599	      0.00000000	      0.00000000	      4.15959344	     -9.29337940	     -8.70039994	      2.36635382	      0.04130067	      7.78482854	      0.00000000	      0.00000000	    -36.78373823	      3.81941058	     10.42864728	     10.23370989	    -16.27842745	      5.23219052	    143.63970801	     87.71232032	      0.00000000	      0.00000000	      2.72100484	     -2.14892666	      1.70877163	    138.07291479	     84.04391118	      0.00000000	      0.00000000
      5.34000000	      7.09871432	     18.78386572	     83.65659522	      0.59230823	      0.98392658	     -1.09295215	    -29.86468546	      3.26466694	      1.95855807	     14.16837697	      0.24728483	     20.51602407	      0.00000000	      0.00000000	      4.49466166	     -8.93697508	     -8.77612788	      4.33997876	      0.07574692	      6.66721793	      0.00000000	      0.00000000	    -36.90679236	      3.44221807	     10.52205792	     10.17298247	    -16.07979646	      5.03039122	    143.61856395	     87.71534975	      0.00000000	      0.00000000	      2.76475988	     -1.99264793	      1.64484811	    138.01137000	     84.14607593	      0.00000000	      0.00000000
      5.35000000	      6.88308113	     19.00305081	     83.28704147	      0.59006610	      0.98228588	     -1.09368804	    -29.86317919	      2.52311932	      2.10879356	     16.04618197	      0.28005871	     20.72089818	      0.00000000	      0.00000000	      4.81856163	     -8.57852033	     -9.31705124	      6.64893005	      0.11604572	      5.35736562	      0.00000000	      0.00000000	    -37.03105226	      3.06200276	     10.61244194	     10.03291819	    -15.90178341	      4.95972347	    143.60912910	     87.71529603	      0.00000000	      0.00000000	      2.73784620	     -1.86536577	      1.56045583	    137.98375217	     84.22625253	      0.00000000	      0.00000000
      5.36000000	      6.53475324	     19.31174684	     82.76615389	      0.58785001	      0.98091144	     -1.09491028	    -29.86392326	      1.52951366	      2.33923503	     18.09070795	      0.31574242	     20.97206386	      0.00000000	      0.00000000	      4.87174958	     -8.07983931	    -10.35431706	      8.65199116	      0.15100573	      4.42981831	      0.00000000	      0.00000000	    -37.14459701	      2.47225854	     10.71323478	      9.85084869	    -15.65593476	      4.94582468	    143.54497024	     87.71448722	      0.00000000	      0.00000000	      2.62593355	     -1.71787072	      1.41138516	    138.01332726	     84.35283853	      0.00000000	      0.00000000
      5.37000000	      6.17019341	     19.70970143	     82.41310752	      0.58547282	      0.97991244	     -1.09578604	    -29.86160560	      0.61647913	      2.57286391	     20.23429809	      0.35315512	     20.75218242	      0.00000000	      0.00000000	      4.88979635	     -7.54765852	    -10.87583195	     10.58502960	      0.18474362	      3.79705033	      0.00000000	      0.00000000	    -37.39797907	      1.91733133	     10.69596758	      9.74061475	    -15.36050673	      4.80211817	    143.51582527	     87.71544730	      0.00000000	      0.00000000	      2.66078620	     -1.68319796	      1.33451469	    138.04746719	     84.38436104	      0.00000000	      0.00000000
